Coordinates
version=1
nRows=6
nColumns=63
inDegrees=yes

Units are S.I. units (second, meters, Newtons, ...)
If the header above contains a line with 'inDegrees', this indicates whether rotational values are in degrees (yes) or radians (no).

endheader
time	pelvis_tilt	pelvis_list	pelvis_rotation	pelvis_tx	pelvis_ty	pelvis_tz	hip_flexion_r	hip_adduction_r	hip_rotation_r	knee_angle_r	knee_angle_r_beta	ankle_angle_r	subtalar_angle_r	mtp_angle_r	hip_flexion_l	hip_adduction_l	hip_rotation_l	knee_angle_l	knee_angle_l_beta	ankle_angle_l	subtalar_angle_l	mtp_angle_l	L5_S1_Flex_Ext	L5_S1_Lat_Bending	L5_S1_axial_rotation	L4_L5_Flex_Ext	L4_L5_Lat_Bending	L4_L5_axial_rotation	L3_L4_Flex_Ext	L3_L4_Lat_Bending	L3_L4_axial_rotation	L2_L3_Flex_Ext	L2_L3_Lat_Bending	L2_L3_axial_rotation	L1_L2_Flex_Ext	L1_L2_Lat_Bending	L1_L2_axial_rotation	L1_T12_Flex_Ext	L1_T12_Lat_Bending	L1_T12_axial_rotation	Abs_r3	Abs_r2	Abs_r1	Abs_t1	Abs_t2	neck_flexion	neck_bending	neck_rotation	arm_flex_r	arm_add_r	arm_rot_r	elbow_flex_r	pro_sup_r	wrist_flex_r	wrist_dev_r	arm_flex_l	arm_add_l	arm_rot_l	elbow_flex_l	pro_sup_l	wrist_flex_l	wrist_dev_l
      1.89130435	      0.10862762	     -3.42456992	     96.54895978	      0.17687751	      0.83513993	      0.69317217	     -7.03693250	     -0.48623259	      0.08249943	      0.68706044	      0.01199147	     27.00173567	    -12.88164812	      0.00000000	     -2.41787578	     -0.01367284	     29.01967079	      5.51223169	      0.09620659	     27.04258788	    -11.39670426	      0.00000000	      0.11353099	      0.00876660	     -1.24458329	      0.21083841	      0.01165958	     -1.32236974	      0.18652007	      0.02131512	     -1.32236974	      0.12975457	      0.02131512	     -1.08901037	      0.10542488	      0.01787686	     -1.01122392	      0.06487161	      0.01357947	     -0.93343746	      0.81094053	      0.09916957	     -6.92199886	      0.00000000	      0.00000000	      8.74372346	      2.14064560	      0.71948989	     86.82273291	   -100.83705346	     75.04367069	     10.96119943	     21.17251255	    -13.84504656	     20.99036402	    -81.62776047	    -77.34301899	     -6.87376027	      0.95681077	     10.92171558	    -19.03389156	     -3.71654833
      1.91304348	     -0.02880721	     -3.40106103	     96.60214794	      0.17699995	      0.83528724	      0.69308936	     -7.11303826	     -0.61335807	     -0.03021024	      0.69959076	      0.01221016	     27.07456075	    -12.66047843	      0.00000000	     -2.41725898	      0.10115676	     28.46594563	      5.52112491	      0.09636181	     27.45352514	    -10.65042065	      0.00000000	      0.11613986	     -0.01157329	     -1.27468907	      0.21568334	     -0.01539247	     -1.35435713	      0.19080618	     -0.02813929	     -1.35435713	      0.13273625	     -0.02813929	     -1.11535293	      0.10784748	     -0.02360025	     -1.03568487	      0.06636232	     -0.01792702	     -0.95601680	      0.82957544	     -0.13091936	     -7.08943819	      0.00000000	      0.00000000	      8.35804011	      2.24629963	      0.72715873	     89.27295288	   -100.13876969	     72.70431792	     10.04368384	     26.50204576	    -13.47659487	     20.53374941	    -82.24416498	    -77.21672996	     -7.41956680	      0.94431117	     11.05241639	    -18.98597911	     -3.90536773
      1.93478261	     -0.08145363	     -3.38769780	     96.62492939	      0.17704327	      0.83548699	      0.69299342	     -7.16969816	     -0.65396459	     -0.38464894	      0.73676281	      0.01285894	     27.05263641	    -12.23996530	      0.00000000	     -2.41443370	      0.14493682	     28.27893457	      5.53907034	      0.09667501	     27.65735065	    -10.42362166	      0.00000000	      0.11726249	     -0.01928083	     -1.30495757	      0.21776818	     -0.02564351	     -1.38651742	      0.19265055	     -0.04687942	     -1.38651742	      0.13401931	     -0.04687942	     -1.14183788	      0.10888995	     -0.03931747	     -1.06027803	      0.06700379	     -0.02986601	     -0.97871818	      0.83759427	     -0.21810864	     -7.25778253	      0.00000000	      0.00000000	      8.15026665	      2.29677839	      0.82030231	     91.81643852	    -99.50079672	     70.07611887	      9.52321215	     29.94962822	    -13.70808866	     19.80208821	    -82.43024432	    -76.99696914	     -7.03610117	      0.89419235	     10.73662946	    -19.26155003	     -3.93735981
      1.95652174	     -0.07967458	     -3.40690729	     96.60042652	      0.17686906	      0.83563476	      0.69293966	     -7.18987761	     -0.66366400	     -0.07778728	      0.76421328	      0.01333804	     26.75093119	    -12.76060310	      0.00000000	     -2.32410382	      0.15140086	     27.46986701	      5.68056567	      0.09914457	     27.96316549	     -9.31568657	      0.00000000	      0.11965652	     -0.01399399	     -1.32480942	      0.22221412	     -0.01861201	     -1.40761001	      0.19658369	     -0.03402499	     -1.40761001	      0.13675543	     -0.03402499	     -1.15920824	      0.11111304	     -0.02853655	     -1.07640765	      0.06837173	     -0.02167669	     -0.99360706	      0.85469455	     -0.15830284	     -7.36819254	      0.00000000	      0.00000000	      8.19037660	      2.19820677	      1.08100618	     94.07988052	    -99.00394974	     66.66376366	      9.43338598	     32.15256908	    -14.29152454	     19.20631346	    -82.05451757	    -76.72236415	     -8.04148266	      0.89504027	     11.77082257	    -19.39423592	     -4.66291378
      1.97826087	     -0.00004779	     -3.40884260	     96.67752716	      0.17650304	      0.83585026	      0.69297078	     -7.21051134	     -0.58291180	     -0.23420890	      0.79413664	      0.01386030	     26.56825677	    -12.83233197	      0.00000000	     -2.32342445	      0.10207812	     28.10211569	      5.66857855	      0.09893536	     27.61222250	    -10.11756802	      0.00000000	      0.11655265	      0.00137559	     -1.37020010	      0.21644993	      0.00182954	     -1.45583761	      0.19148436	      0.00334462	     -1.45583761	      0.13320803	      0.00334462	     -1.19892509	      0.10823079	      0.00280511	     -1.11328758	      0.06659819	      0.00213079	     -1.02765008	      0.83252396	      0.01556098	     -7.62064192	      0.00000000	      0.00000000	      8.39980655	      2.15004555	      1.43050779	     96.55643983	    -98.49116971	     63.52061748	      9.57268341	     32.94837478	    -15.27132478	     18.57712892	    -81.54181405	    -76.45458643	     -7.28959605	      0.83513524	     12.61197773	    -19.98744644	     -4.49001226
      2.00000000	      0.13496776	     -3.43111435	     96.76834913	      0.17604775	      0.83600814	      0.69313059	     -7.17954689	     -0.45781108	     -0.41011438	      0.81711943	      0.01426142	     26.42977099	    -12.91093324	      0.00000000	     -2.24707535	      0.00765789	     28.54242494	      5.72349340	      0.09989380	     27.31332556	    -10.63096012	      0.00000000	      0.11407859	      0.02316249	     -1.41014549	      0.21185535	      0.03080612	     -1.49827958	      0.18741972	      0.05631728	     -1.49827958	      0.13038042	      0.05631728	     -1.23387731	      0.10593338	      0.04723295	     -1.14574321	      0.06518451	      0.03587870	     -1.05760912	      0.81485197	      0.26201875	     -7.84280618	      0.00000000	      0.00000000	      8.69986154	      2.06285987	      1.65324791	     99.86955873	    -97.87988651	     59.10418896	      9.76485589	     33.57809679	    -16.66186515	     17.88947918	    -80.85782442	    -76.24213528	     -7.19954144	      0.81341724	     13.83014849	    -20.43913427	     -4.47407447
